<svg width="32" height="32" viewBox="0 0 32 32" fill="none" xmlns="http://www.w3.org/2000/svg">
<path d="M14.6667 24H17.3333V21.3333H14.6667V24ZM16 8C14.5855 8 13.229 8.5619 12.2288 9.5621C11.2286 10.5623 10.6667 11.9188 10.6667 13.3333H13.3333C13.3333 12.6261 13.6143 11.9478 14.1144 11.4477C14.6145 10.9476 15.2928 10.6667 16 10.6667C16.7072 10.6667 17.3855 10.9476 17.8856 11.4477C18.3857 11.9478 18.6667 12.6261 18.6667 13.3333C18.6667 16 14.6667 15.6667 14.6667 20H17.3333C17.3333 17 21.3333 16.6667 21.3333 13.3333C21.3333 11.9188 20.7714 10.5623 19.7712 9.5621C18.771 8.5619 17.4145 8 16 8ZM6.66667 4H25.3333C26.0406 4 26.7189 4.28095 27.219 4.78105C27.719 5.28115 28 5.95942 28 6.66667V25.3333C28 26.0406 27.719 26.7189 27.219 27.219C26.7189 27.719 26.0406 28 25.3333 28H6.66667C5.95942 28 5.28115 27.719 4.78105 27.219C4.28095 26.7189 4 26.0406 4 25.3333V6.66667C4 5.95942 4.28095 5.28115 4.78105 4.78105C5.28115 4.28095 5.95942 4 6.66667 4Z" fill="#797979"/>
</svg>
