<svg width="32" height="32" viewBox="0 0 32 32" fill="none" xmlns="http://www.w3.org/2000/svg">
<path d="M20 4H6.66667C5.95942 4 5.28115 4.28095 4.78105 4.78105C4.28095 5.28115 4 5.95942 4 6.66667V25.3333C4 26.0406 4.28095 26.7189 4.78105 27.219C5.28115 27.719 5.95942 28 6.66667 28H25.3333C26.0406 28 26.7189 27.719 27.219 27.219C27.719 26.7189 28 26.0406 28 25.3333V12L20 4ZM25.3333 25.3333H6.66667V6.66667H18.6667V13.3333H25.3333M22.6667 18.6667H9.33333V16H22.6667M18.6667 22.6667H9.33333V20H18.6667" fill="#797979"/>
</svg>
