<svg width="32" height="32" viewBox="0 0 32 32" fill="none" xmlns="http://www.w3.org/2000/svg">
<mask id="mask0_164_72" style="mask-type:alpha" maskUnits="userSpaceOnUse" x="0" y="0" width="32" height="32">
<rect width="32" height="32" fill="#D9D9D9"/>
</mask>
<g mask="url(#mask0_164_72)">
<path d="M16 28V25.1667L23.0667 18.1L25.9 20.9333L18.8333 28H16ZM4 21.3333V18.6667H13.3333V21.3333H4ZM26.8333 20L24 17.1667L24.9667 16.2C25.2111 15.9556 25.5222 15.8333 25.9 15.8333C26.2778 15.8333 26.5889 15.9556 26.8333 16.2L27.8 17.1667C28.0444 17.4111 28.1667 17.7222 28.1667 18.1C28.1667 18.4778 28.0444 18.7889 27.8 19.0333L26.8333 20ZM4 16V13.3333H18.6667V16H4ZM4 10.6667V8H18.6667V10.6667H4Z" fill="white"/>
</g>
</svg>
