<svg width="32" height="32" viewBox="0 0 32 32" fill="none" xmlns="http://www.w3.org/2000/svg">
<mask id="mask0_158_10" style="mask-type:alpha" maskUnits="userSpaceOnUse" x="0" y="0" width="32" height="32">
<rect width="32" height="32" fill="#D9D9D9"/>
</mask>
<g mask="url(#mask0_158_10)">
<path d="M7.99992 18.6667C7.26659 18.6667 6.63881 18.4056 6.11659 17.8833C5.59436 17.3611 5.33325 16.7333 5.33325 16C5.33325 15.2667 5.59436 14.6389 6.11659 14.1167C6.63881 13.5944 7.26659 13.3333 7.99992 13.3333C8.73325 13.3333 9.36103 13.5944 9.88325 14.1167C10.4055 14.6389 10.6666 15.2667 10.6666 16C10.6666 16.7333 10.4055 17.3611 9.88325 17.8833C9.36103 18.4056 8.73325 18.6667 7.99992 18.6667ZM15.9999 18.6667C15.2666 18.6667 14.6388 18.4056 14.1166 17.8833C13.5944 17.3611 13.3333 16.7333 13.3333 16C13.3333 15.2667 13.5944 14.6389 14.1166 14.1167C14.6388 13.5944 15.2666 13.3333 15.9999 13.3333C16.7333 13.3333 17.361 13.5944 17.8833 14.1167C18.4055 14.6389 18.6666 15.2667 18.6666 16C18.6666 16.7333 18.4055 17.3611 17.8833 17.8833C17.361 18.4056 16.7333 18.6667 15.9999 18.6667ZM23.9999 18.6667C23.2666 18.6667 22.6388 18.4056 22.1166 17.8833C21.5944 17.3611 21.3333 16.7333 21.3333 16C21.3333 15.2667 21.5944 14.6389 22.1166 14.1167C22.6388 13.5944 23.2666 13.3333 23.9999 13.3333C24.7333 13.3333 25.361 13.5944 25.8833 14.1167C26.4055 14.6389 26.6666 15.2667 26.6666 16C26.6666 16.7333 26.4055 17.3611 25.8833 17.8833C25.361 18.4056 24.7333 18.6667 23.9999 18.6667Z" fill="#797979"/>
</g>
</svg>
